<?xml version="1.0" encoding="UTF-8"?>
<svg width="503.119px" height="432.754723px" viewBox="0 0 503.119 432.754723" version="1.1" xmlns="http://www.w3.org/2000/svg" xmlns:xlink="http://www.w3.org/1999/xlink">
    <title>Group 184</title>
    <defs>
        <polygon id="path-1" points="0 0 118.179 0 118.179 35.759 0 35.759"></polygon>
        <polygon id="path-3" points="0 0 22.6926 0 22.6926 137.88 0 137.88"></polygon>
        <polygon id="path-5" points="0 5.68434189e-14 4.2716 5.68434189e-14 4.2716 8.296 0 8.296"></polygon>
        <polygon id="path-7" points="0 0 4.2716 0 4.2716 8.296 0 8.296"></polygon>
        <polygon id="path-9" points="0 0 22.694 0 22.694 137.88 0 137.88"></polygon>
        <polygon id="path-11" points="0 0 43.0937 0 43.0937 18.658 0 18.658"></polygon>
        <polygon id="path-13" points="0 0 22.693 0 22.693 9.329 0 9.329"></polygon>
        <polygon id="path-15" points="-7.10542736e-15 0 22.6924 0 22.6924 9.329 -7.10542736e-15 9.329"></polygon>
        <polygon id="path-17" points="0 0 20.617 0 20.617 57.6837 0 57.6837"></polygon>
    </defs>
    <g id="Page-1" stroke="none" stroke-width="1" fill="none" fill-rule="evenodd">
        <g id="Group-184" transform="translate(0.75, 0.7547)">
            <g id="Group-60" transform="translate(16.4528, 0.0006)">
                <path d="M239.3217,245.5308 L109.9257,245.5308 C108.1137,245.5308 106.5437,244.2758 106.1447,242.5068 L88.4417,169.8248 C87.8957,167.4018 90.6377,163.1498 93.1217,163.1498 L213.2707,163.1498 C217.0787,163.1498 220.3777,165.7878 221.2137,169.5018 L237.2687,240.8038" id="Fill-1" fill="#FFFFFF"></path>
                <path d="M57.9456,257.3062 L36.2356,257.3062 C30.8046,257.3062 26.4016,252.9042 26.4016,247.4732 L26.4016,208.7192 L67.7786,208.7192 L67.7786,247.4732 C67.7786,252.9042 63.3766,257.3062 57.9456,257.3062" id="Fill-3" fill="#FFFFFF"></path>
                <path d="M26.4021,236.7785 L26.4021,236.7785 C21.9651,236.7785 18.3691,233.1815 18.3691,228.7445 C18.3691,224.3085 21.9651,220.7115 26.4021,220.7115 L26.4021,213.4425 C17.9501,213.4425 11.0981,220.2935 11.0981,228.7445 C11.0981,237.1965 17.9501,244.0485 26.4021,244.0485 L26.4021,236.7785 Z" id="Fill-4" fill="#FFFFFF"></path>
                <polygon id="Fill-5" fill="#E5E6EA" points="300.5782 408.0788 300.5782 387.0958 315.3632 387.0958 315.3632 373.0848 290.5122 373.0848 290.5122 408.0798"></polygon>
                <path d="M203.0375,293.0654 C203.0375,293.0654 212.6465,346.4874 213.4405,346.4874 L224.1055,346.4874 L223.4385,293.7864 L203.0375,293.0654 Z" id="Fill-6" fill="#FFFFFF"></path>
                <polygon id="Fill-7" fill="#FFFFFF" points="268.8247 293.7862 269.3737 342.2882 303.9387 340.0802 305.2217 346.4872 315.3627 347.0842 315.8967 293.0652"></polygon>
                <path d="M269.3734,311.724 L277.1484,311.724 C281.4834,311.724 285.2754,314.643 286.3844,318.833 L292.2134,340.848 L303.9384,340.081 L305.2214,346.488 L314.8864,346.488 L315.3624,293.065 L268.8244,293.065 L269.3734,311.724 Z" id="Fill-8" fill="#E5E6EA"></path>
                <polygon id="Fill-9" fill="#E5E6EA" points="290.5125 430.7684 268.8245 430.7684 269.2205 373.0854 290.5125 373.0844 290.5125 408.0794"></polygon>
                <polygon id="Fill-10" fill="#E5E6EA" points="305.2214 346.4874 315.1624 346.4874 315.8974 373.0844 268.8254 373.0844 269.3734 342.2884 303.9384 340.0804"></polygon>
                <path d="M381.524,22.7412 C383.611,10.2372 395.372,9.8722 402.161,21.0832 L381.524,22.7412 Z" id="Fill-11" fill="#E5E6EA"></path>
                <path d="M451.3733,162.552 C462.8613,208.895 464.2123,283.856 464.2123,283.856 C461.0683,337.691 425.2163,343.708 425.2163,343.708 L361.4063,346.488 L360.7483,293.065 L369.6613,293.065 L369.6613,257.306 L319.6343,257.306 L327.5733,252.716 L328.8103,245.44 L270.6013,244.678 L272.0293,228.583 L237.0043,235.664 L226.0323,185.769 C226.0323,185.769 293.6873,174.219 310.2023,145.5 C310.2023,145.5 323.3193,124.88 317.5903,104.159 C317.5903,104.159 266.3153,97.977 270.6013,38.876 L278.2843,36.01 L306.4553,35.618 C306.4553,35.618 317.6593,34.135 325.4893,23.462 L341.0603,10.437 L345.1233,1.971 L353.8483,1.477 L361.6983,8.78 L402.1933,8.959 L410.5723,0 L418.6513,0.699 L424.1443,10.666 L421.7973,26.076 C421.7973,26.076 433.1903,28.405 433.7813,50.994 L434.6733,88.39 L451.3733,162.552 Z" id="Fill-12" fill="#FFFFFF"></path>
                <path d="M418.4915,219.0826 C409.8785,228.0216 401.2675,236.9606 392.6545,245.8986 C387.9755,250.7546 383.1625,255.8246 380.9465,262.1926 C377.8055,271.2226 380.4095,281.0846 381.2775,290.6046 C382.9885,309.3796 377.7465,328.1336 370.6535,345.6016 L360.5525,345.6016 L360.7485,293.0656 L369.6605,293.0656 L369.6605,257.3066 L321.5935,257.0916 C321.5935,257.0916 329.5815,255.9106 328.8095,245.4406 C328.8095,245.4406 367.7345,250.4046 412.9245,219.0826 L418.4915,219.0826 Z" id="Fill-13" fill="#E5E6EA"></path>
                <path d="M287.7974,164.2999 C286.5474,167.7199 267.4724,197.2479 264.0484,230.1959 L272.1584,227.6709 C272.1584,227.6709 274.4644,210.5049 284.9694,192.3599 C284.9694,192.3599 304.6654,162.8379 304.8514,155.1609 L287.7974,164.2999 Z" id="Fill-14" fill="#E5E6EA"></path>
                <path d="M308.927,241.2303 C305.423,240.2953 270.691,229.8833 288.332,227.7643 C293.198,227.1793 282.401,222.0933 282.51,222.1753 C276.804,218.8483 293.779,214.3893 293.671,214.4373 C295.141,214.1533 289.708,213.4733 286.71,212.2613 C278.952,209.1263 305.435,202.3373 309.95,200.7173 C309.95,200.7173 296.812,206.4173 295.644,220.5463 C294.475,234.6743 308.927,241.2303 308.927,241.2303" id="Fill-15" fill="#E5E6EA"></path>
                <line x1="401.3674" y1="97.6017" x2="402.5274" y2="107.4317" id="Stroke-16" stroke="#D4D5D8" stroke-width="1.5" stroke-linecap="round" stroke-linejoin="round"></line>
                <path d="M400.7577,135.0406 C401.5477,138.1236 401.9577,141.3046 401.9767,144.4876" id="Stroke-17" stroke="#D4D5D8" stroke-width="1.5" stroke-linecap="round" stroke-linejoin="round"></path>
                <path d="M427.7973,157.5858 C427.4113,160.9378 426.6023,164.2408 425.3973,167.3928" id="Stroke-18" stroke="#D4D5D8" stroke-width="1.5" stroke-linecap="round" stroke-linejoin="round"></path>
                <path d="M443.7734,188.3152 C440.6414,190.0662 437.5104,191.8182 434.3784,193.5682" id="Stroke-19" stroke="#D4D5D8" stroke-width="1.5" stroke-linecap="round" stroke-linejoin="round"></path>
                <path d="M404.7463,185.7904 C402.6863,187.5034 400.4573,189.0134 398.1013,190.2884" id="Stroke-20" stroke="#D4D5D8" stroke-width="1.5" stroke-linecap="round" stroke-linejoin="round"></path>
                <path d="M333.6276,211.6766 C331.0136,212.2656 328.3416,212.5956 325.6636,212.6586" id="Stroke-21" stroke="#D4D5D8" stroke-width="1.5" stroke-linecap="round" stroke-linejoin="round"></path>
                <path d="M437.5782,259.6485 C436.4492,263.8875 434.8062,267.9885 432.6952,271.8335" id="Stroke-22" stroke="#D4D5D8" stroke-width="1.5" stroke-linecap="round" stroke-linejoin="round"></path>
                <path d="M450.4333,284.5432 C450.2773,289.5442 448.8553,294.5002 446.3323,298.8222" id="Stroke-23" stroke="#D4D5D8" stroke-width="1.5" stroke-linecap="round" stroke-linejoin="round"></path>
                <line x1="406.2366" y1="277.6672" x2="403.5956" y2="285.9512" id="Stroke-24" stroke="#D4D5D8" stroke-width="1.5" stroke-linecap="round" stroke-linejoin="round"></line>
                <path d="M400.2429,211.8491 C400.2429,211.8491 399.9219,212.0071 392.6059,215.2491" id="Stroke-25" stroke="#D4D5D8" stroke-width="1.5" stroke-linecap="round" stroke-linejoin="round"></path>
                <path d="M376.0835,112.9371 C375.9565,116.0911 375.8295,119.2441 375.7025,122.3981" id="Stroke-26" stroke="#D4D5D8" stroke-width="1.5" stroke-linecap="round" stroke-linejoin="round"></path>
                <path d="M360.1235,228.0028 C357.2145,228.2198 354.2795,228.1088 351.3945,227.6708" id="Stroke-27" stroke="#D4D5D8" stroke-width="1.5" stroke-linecap="round" stroke-linejoin="round"></path>
                <line x1="383.7669" y1="261.5599" x2="383.3619" y2="269.9219" id="Stroke-28" stroke="#D4D5D8" stroke-width="1.5" stroke-linecap="round" stroke-linejoin="round"></line>
                <path d="M388.6382,291.6825 C388.8622,294.0545 388.7612,296.4565 388.3362,298.8015" id="Stroke-29" stroke="#D4D5D8" stroke-width="1.5" stroke-linecap="round" stroke-linejoin="round"></path>
                <line x1="328.8096" y1="118.8152" x2="328.8096" y2="126.3832" id="Stroke-30" stroke="#D4D5D8" stroke-width="1.5" stroke-linecap="round" stroke-linejoin="round"></line>
                <path d="M307.3551,181.9752 C307.2221,184.5412 307.5871,187.1332 308.4231,189.5632" id="Stroke-31" stroke="#D4D5D8" stroke-width="1.5" stroke-linecap="round" stroke-linejoin="round"></path>
                <path d="M375.7025,159.4337 C374.6125,161.7617 373.9765,164.2997 373.8355,166.8647" id="Stroke-32" stroke="#D4D5D8" stroke-width="1.5" stroke-linecap="round" stroke-linejoin="round"></path>
                <path d="M323.5677,155.161 C322.4987,157.937 321.1747,160.614 319.6187,163.149" id="Stroke-33" stroke="#D4D5D8" stroke-width="1.5" stroke-linecap="round" stroke-linejoin="round"></path>
                <path d="M343.9778,170.4616 C344.0418,173.3856 343.7838,176.3176 343.2088,179.1856" id="Stroke-34" stroke="#D4D5D8" stroke-width="1.5" stroke-linecap="round" stroke-linejoin="round"></path>
                <path d="M259.457,202.773 C256.623,203.443 253.892,204.548 251.391,206.038" id="Stroke-35" stroke="#D4D5D8" stroke-width="1.5" stroke-linecap="round" stroke-linejoin="round"></path>
                <line x1="346.8576" y1="99.5382" x2="346.8576" y2="108.8022" id="Stroke-36" stroke="#D4D5D8" stroke-width="1.5" stroke-linecap="round" stroke-linejoin="round"></line>
                <path d="M351.3433,131.4482 C351.2223,132.9622 350.6913,139.6112 350.5713,141.1252" id="Stroke-37" stroke="#D4D5D8" stroke-width="1.5" stroke-linecap="round" stroke-linejoin="round"></path>
                <line x1="420.6621" y1="311.724" x2="417.6891" y2="320.493" id="Stroke-38" stroke="#D4D5D8" stroke-width="1.5" stroke-linecap="round" stroke-linejoin="round"></line>
                <path d="M387.2148,324.3975 C386.0308,326.8725 383.5908,330.6015 382.4068,333.0765" id="Stroke-39" stroke="#D4D5D8" stroke-width="1.5" stroke-linecap="round" stroke-linejoin="round"></path>
                <line x1="246.4036" y1="186.9464" x2="234.7846" y2="191.3644" id="Stroke-40" stroke="#D4D5D8" stroke-width="1.5" stroke-linecap="round" stroke-linejoin="round"></line>
                <line x1="249.8292" y1="220.5464" x2="242.4342" y2="223.3584" id="Stroke-41" stroke="#D4D5D8" stroke-width="1.5" stroke-linecap="round" stroke-linejoin="round"></line>
                <path d="M433.7204,116.1955 C432.7714,119.7615 432.3724,123.4735 432.5424,127.1605" id="Stroke-42" stroke="#D4D5D8" stroke-width="1.5" stroke-linecap="round" stroke-linejoin="round"></path>
                <path d="M364.8239,196.1406 C363.2569,197.2596 358.1819,198.9966 356.2939,199.3736" id="Stroke-43" stroke="#D4D5D8" stroke-width="1.5" stroke-linecap="round" stroke-linejoin="round"></path>
                <path d="M265.6674,183.7387 C267.6714,182.5917 269.8224,181.7017 272.0494,181.0987" id="Stroke-44" stroke="#D4D5D8" stroke-width="1.5" stroke-linecap="round" stroke-linejoin="round"></path>
                <path d="M410.7107,247.4035 C410.4977,245.0525 410.6207,242.6705 411.0737,240.3535" id="Stroke-45" stroke="#D4D5D8" stroke-width="1.5" stroke-linecap="round" stroke-linejoin="round"></path>
                <path d="M444.9743,218.3502 C444.6593,222.0172 444.3433,225.6832 444.0283,229.3492" id="Stroke-46" stroke="#D4D5D8" stroke-width="1.5" stroke-linecap="round" stroke-linejoin="round"></path>
                <path d="M169.3809,200.0128 L168.1109,201.2938 C167.5459,201.8628 166.6419,201.8828 166.0409,201.3528 C164.7399,200.2068 163.0409,199.5128 161.1779,199.5128 C158.2979,199.5128 155.8029,201.1708 154.5789,203.5928 C154.4139,203.9158 154.4139,204.3098 154.5789,204.6348 C155.8029,207.0558 158.2989,208.7138 161.1779,208.7138 C162.9279,208.7138 164.5329,208.0998 165.7989,207.0758 C166.3559,206.6258 167.1749,206.7068 167.6799,207.2168 L169.3809,208.9328 C169.8779,209.4328 170.7329,209.0808 170.7329,208.3758 L170.7329,200.5688 C170.7329,199.8628 169.8779,199.5118 169.3809,200.0128" id="Stroke-47" stroke="#D4D5D8" stroke-width="1.5" stroke-linecap="round" stroke-linejoin="round"></path>
                <path d="M125.8129,130.3081 L125.8579,130.3081 C127.4019,130.3081 128.6549,131.5601 128.6549,133.1051 L128.6549,138.3971 C128.6549,139.9421 127.4019,141.1941 125.8579,141.1941 L125.8129,141.1941" id="Stroke-48" stroke="#D4D5D8" stroke-width="1.5" stroke-linecap="round" stroke-linejoin="round"></path>
                <path d="M131.4957,141.194 L131.4507,141.194 C129.9067,141.194 128.6537,139.942 128.6537,138.397 L128.6537,133.105 C128.6537,131.56 129.9067,130.308 131.4507,130.308 L131.4957,130.308" id="Stroke-49" stroke="#D4D5D8" stroke-width="1.5" stroke-linecap="round" stroke-linejoin="round"></path>
                <path d="M101.4701,52.5452 C139.0191,52.0182 176.5741,51.9242 214.1251,52.2642" id="Stroke-50" stroke="#D4D5D8" stroke-width="1.5" stroke-linecap="round" stroke-linejoin="round"></path>
                <path d="M100.8793,65.8849 C138.8923,66.7079 176.9483,67.5319 214.9423,66.3559" id="Stroke-51" stroke="#D4D5D8" stroke-width="1.5" stroke-linecap="round" stroke-linejoin="round"></path>
                <path d="M98.9506,79.7279 C107.3856,79.3109 115.8366,78.8929 124.3126,78.8709 C132.5906,78.8499 140.8516,79.2059 149.1166,79.4439 C171.0126,80.0749 192.9666,79.8749 214.8956,79.6749" id="Stroke-52" stroke="#D4D5D8" stroke-width="1.5" stroke-linecap="round" stroke-linejoin="round"></path>
                <path d="M100.8793,108.6133 C114.5633,108.9093 125.1353,108.4103 138.8243,108.6133 C163.1653,108.9743 190.6253,109.8363 214.9423,109.0843" id="Stroke-53" stroke="#D4D5D8" stroke-width="1.5" stroke-linecap="round" stroke-linejoin="round"></path>
                <path d="M98.9506,122.4562 C107.3856,122.0392 115.8366,121.6212 124.3126,121.5992 C132.5906,121.5782 140.8516,121.9342 149.1166,122.1722 C171.0126,122.8032 192.9666,122.6032 214.8956,122.4032" id="Stroke-54" stroke="#D4D5D8" stroke-width="1.5" stroke-linecap="round" stroke-linejoin="round"></path>
                <path d="M125.8129,93.7056 C138.7529,94.9566 151.8979,93.5606 164.9549,93.8126 C170.8419,93.9266 176.7059,94.3756 182.5909,94.5296 C187.4729,94.6576 192.3609,94.5826 197.2449,94.5066 C202.9369,94.4196 208.6289,94.3316 214.3219,94.2436" id="Stroke-55" stroke="#D4D5D8" stroke-width="1.5" stroke-linecap="round" stroke-linejoin="round"></path>
                <path d="M137.0663,136.1385 C140.4513,136.5905 143.9573,136.2625 147.4003,136.0425 C169.2283,134.6515 192.2563,137.4065 214.1243,136.2865" id="Stroke-56" stroke="#D4D5D8" stroke-width="1.5" stroke-linecap="round" stroke-linejoin="round"></path>
                <path d="M320.1756,257.3062 L114.8616,257.3062 C110.2826,257.3062 106.5716,253.5942 106.5716,249.0162 L106.5716,245.5312 L328.4656,245.5312 L328.4656,249.0162 C328.4656,253.5942 324.7546,257.3062 320.1756,257.3062" id="Fill-57" fill="#FFFFFF"></path>
                <path d="M320.3287,257.3062 L247.4597,257.3062 C242.9657,257.3062 239.3217,253.6632 239.3217,249.1692 L239.3217,245.5312 L328.4657,245.5312 L328.4657,249.1692 C328.4657,253.6632 324.8227,257.3062 320.3287,257.3062" id="Fill-58" fill="#E5E6EA"></path>
                <polygon id="Fill-59" fill="#FFFFFF" points="-2.13162821e-14 293.0657 251.481 293.0657 251.481 257.3067 -2.13162821e-14 257.3067"></polygon>
            </g>
            <g id="Group-66" transform="translate(22.4198, 257.3073)">
                <g id="Group-63" transform="translate(245.515, 0)">
                    <mask id="mask-2" fill="white">
                        <use xlink:href="#path-1"></use>
                    </mask>
                    <g id="Clip-62"></g>
                    <polygon id="Fill-61" fill-opacity="0.5" fill="#E5E6EA" mask="url(#mask-2)" points="0 35.759 118.18 35.759 118.18 0 0 0"></polygon>
                </g>
                <polygon id="Fill-64" fill="#FFFFFF" points="-1.13686838e-13 173.639 22.693 173.639 22.693 35.758 -1.13686838e-13 35.758"></polygon>
            </g>
            <g id="Group-69" transform="translate(45.1122, 293.0663)">
                <mask id="mask-4" fill="white">
                    <use xlink:href="#path-3"></use>
                </mask>
                <g id="Clip-68"></g>
                <polygon id="Fill-67" fill-opacity="0.5" fill="#E5E6EA" mask="url(#mask-4)" points="-0.0004 137.88 22.6926 137.88 22.6926 -0.001 -0.0004 -0.001"></polygon>
            </g>
            <g id="Group-79" transform="translate(37.7928, 212.4563)">
                <g id="Group-76" transform="translate(0, 0)">
                    <g id="Group-72" transform="translate(0, -0)">
                        <mask id="mask-6" fill="white">
                            <use xlink:href="#path-5"></use>
                        </mask>
                        <g id="Clip-71"></g>
                        <polygon id="Fill-70" fill-opacity="0.5" fill="#E5E6EA" mask="url(#mask-6)" points="0 8.296 4.272 8.296 4.272 5.68434189e-14 0 5.68434189e-14"></polygon>
                    </g>
                    <g id="Group-75" transform="translate(0, 23.569)">
                        <mask id="mask-8" fill="white">
                            <use xlink:href="#path-7"></use>
                        </mask>
                        <g id="Clip-74"></g>
                        <polygon id="Fill-73" fill-opacity="0.5" fill="#E5E6EA" mask="url(#mask-8)" points="0 8.296 4.272 8.296 4.272 0 0 0"></polygon>
                    </g>
                </g>
                <polygon id="Fill-77" fill="#FFFFFF" points="76.55 218.49 99.243 218.49 99.243 80.609 76.55 80.609"></polygon>
            </g>
            <g id="Group-84" transform="translate(137.0358, 293.0653)">
                <polygon id="Fill-80" fill-opacity="0.5" fill="#E5E6EA" points="0 0.001 22.693 0.001 22.693 88.526 0 88.526"></polygon>
                <polygon id="Fill-82" fill="#FFFFFF" points="103.251 137.881 125.944 137.881 125.944 0 103.251 0"></polygon>
            </g>
            <g id="Group-91" transform="translate(262.9788, 293.0653)">
                <g id="Group-87" transform="translate(0, 0.001)">
                    <mask id="mask-10" fill="white">
                        <use xlink:href="#path-9"></use>
                    </mask>
                    <g id="Clip-86"></g>
                    <polygon id="Fill-85" fill-opacity="0.5" fill="#E5E6EA" mask="url(#mask-10)" points="-5.68434189e-14 137.88 22.694 137.88 22.694 -0.001 -5.68434189e-14 -0.001"></polygon>
                </g>
                <polygon id="Fill-88" fill="#FFFFFF" points="68.836 94.031 91.529 94.031 91.529 0.001 68.836 0.001"></polygon>
                <polygon id="Fill-90" fill="#E5E6EA" points="68.836 9.33 91.529 9.33 91.529 0 68.836 0"></polygon>
            </g>
            <g id="Group-94" transform="translate(219.4908, 293.0663)">
                <mask id="mask-12" fill="white">
                    <use xlink:href="#path-11"></use>
                </mask>
                <g id="Clip-93"></g>
                <polygon id="Fill-92" fill-opacity="0.5" fill="#E5E6EA" mask="url(#mask-12)" points="3.4057 18.6583 43.0937 18.6583 43.0937 -0.0007 -0.0003 -0.0007"></polygon>
            </g>
            <g id="Group-97" transform="translate(114.3428, 293.0663)">
                <mask id="mask-14" fill="white">
                    <use xlink:href="#path-13"></use>
                </mask>
                <g id="Clip-96"></g>
                <polygon id="Fill-95" fill-opacity="0.5" fill="#E5E6EA" mask="url(#mask-14)" points="0 9.329 22.693 9.329 22.693 -0.001 0 -0.001"></polygon>
            </g>
            <g id="Group-105" transform="translate(22.4198, 293.0663)">
                <g id="Group-100">
                    <mask id="mask-16" fill="white">
                        <use xlink:href="#path-15"></use>
                    </mask>
                    <g id="Clip-99"></g>
                    <polygon id="Fill-98" fill-opacity="0.5" fill="#E5E6EA" mask="url(#mask-16)" points="-7.10542736e-15 9.329 22.693 9.329 22.693 -0.001 -7.10542736e-15 -0.001"></polygon>
                </g>
                <polygon id="Fill-101" fill="#E5E6EA" points="332.088 94.03 354.781 94.03 354.781 0 332.088 0"></polygon>
                <polygon id="Fill-103" fill="#FFFFFF" points="459.1272 80.0187 354.7812 80.0187 354.7812 53.4217 459.1272 49.2227"></polygon>
                <polygon id="Fill-104" fill="#FFFFFF" points="406.493 137.703 447.715 137.703 447.715 80.019 406.493 80.019"></polygon>
            </g>
            <g id="Group-108" transform="translate(408.2958, 373.0853)">
                <mask id="mask-18" fill="white">
                    <use xlink:href="#path-17"></use>
                </mask>
                <g id="Clip-107"></g>
                <polygon id="Fill-106" fill-opacity="0.5" fill="#E5E6EA" mask="url(#mask-18)" points="-5.68434189e-14 57.684 20.617 57.684 20.617 0 -5.68434189e-14 0"></polygon>
            </g>
            <g id="Group-183">
                <path d="M151.5392,370.154918 C151.5392,370.154918 138.1722,361.285918 133.3732,373.294918 L133.4552,381.590918 L137.5332,387.242918 C137.5332,387.242918 156.0472,380.298918 162.7672,411.382918 L178.8032,410.171918 L151.5392,370.154918 Z" id="Fill-109" fill="#E5E6EA"></path>
                <path d="M122.182,408.079418 L109.536,408.163418 C109.536,408.163418 98.922,409.992418 98.488,420.808418 C98.488,420.808418 96.723,430.668418 107.206,430.769418 L200.062,430.472418 C200.062,430.472418 205.847,428.890418 204.533,420.688418 C204.533,420.688418 203.441,408.698418 191.122,409.435418 L154.727,412.379418 L138.518,408.163418 L122.182,408.079418 Z" id="Fill-111" fill="#FFFFFF"></path>
                <path d="M131.7054,406.434118 C136.6884,407.790118 159.6934,413.860118 160.7134,408.820118 C163.4864,395.126118 146.6234,383.799118 138.8094,386.902118 C130.3924,390.245118 127.1704,405.200118 131.7054,406.434118" id="Fill-113" fill="#FFFFFF"></path>
                <path d="M345.2232,432.000018 L306.9712,432.000018 C305.0182,432.000018 303.4342,430.417018 303.4342,428.463018 L303.4342,412.914018 C303.4342,410.960018 305.0182,409.377018 306.9712,409.377018 L345.2232,409.377018 L345.2232,432.000018 Z" id="Fill-114" fill="#E5E6EA"></path>
                <path d="M398.353,432.000018 L349.385,432.000018 C347.059,432.000018 345.175,430.331018 345.175,428.272018 L345.175,413.105018 C345.175,411.046018 347.059,409.377018 349.385,409.377018 L397.907,409.377018" id="Fill-115" fill="#E5E6EA"></path>
                <polygon id="Fill-116" fill="#FFFFFF" points="397.9071 425.338818 351.5501 425.338818 351.5501 416.282818 398.3531 416.282818"></polygon>
                <path d="M390.845,408.163118 L316.526,408.163118 L316.526,387.598118 L390.845,387.598118 C394.442,387.598118 397.357,390.513118 397.357,394.109118 L397.357,401.651118 C397.357,405.248118 394.442,408.163118 390.845,408.163118" id="Fill-117" fill="#E5E6EA"></path>
                <path d="M355.5379,409.377618 L316.5249,409.377618 L316.5249,387.597618 L355.5379,387.597618 C359.1339,387.597618 362.0499,390.513618 362.0499,394.108618 L362.0499,402.865618 C362.0499,406.462618 359.1339,409.377618 355.5379,409.377618" id="Fill-118" fill="#E5E6EA"></path>
                <path d="M352.4013,403.220818 L316.5253,403.220818 L316.5253,394.549818 L352.4013,394.549818 C354.0023,394.549818 355.3013,395.848818 355.3013,397.449818 L355.3013,400.320818 C355.3013,401.921818 354.0023,403.220818 352.4013,403.220818" id="Fill-119" fill="#FFFFFF"></path>
                <path d="M305.9415,36.539018 C324.5635,41.700018 308.3015,58.030018 299.1665,58.030018 C290.1515,58.030018 273.6855,41.724018 292.3915,36.539018 C296.8155,35.312018 301.5185,35.312018 305.9415,36.539018" id="Fill-120" fill="#969696"></path>
                <path d="M377.2014,46.210118 C377.2014,48.671118 379.1964,50.666118 381.6574,50.666118 C384.1184,50.666118 386.1144,48.671118 386.1144,46.210118 C386.1144,43.749118 384.1184,41.754118 381.6574,41.754118 C379.1964,41.754118 377.2014,43.749118 377.2014,46.210118" id="Fill-121" fill="#969696"></path>
                <path d="M328.5969,46.210118 C328.5969,48.658118 330.5819,50.644118 333.0309,50.644118 C335.4789,50.644118 337.4629,48.658118 337.4629,46.210118 C337.4629,43.762118 335.4789,41.776118 333.0309,41.776118 C330.5819,41.776118 328.5969,43.762118 328.5969,46.210118" id="Fill-122" fill="#969696"></path>
                <path d="M439.9976,19.868618 C443.8786,-3.440382 427.9946,-5.017382 419.6386,8.779618" id="Stroke-123" stroke="#969696" stroke-width="1.5" stroke-linecap="round" stroke-linejoin="round"></path>
                <path d="M284.6726,44.053418 C284.6726,76.131418 311.8316,104.995418 343.9106,104.995418" id="Stroke-124" stroke="#969696" stroke-width="1.5" stroke-linecap="round" stroke-linejoin="round"></path>
                <path d="M317.0925,36.565218 C312.7555,36.840218 306.7995,36.542218 297.2955,36.542218" id="Stroke-125" stroke="#969696" stroke-width="1.5" stroke-linecap="round" stroke-linejoin="round"></path>
                <path d="M418.6458,8.959418 C365.9188,8.959418 361.1018,7.100418 352.4078,14.525418 C348.6498,17.734418 345.5298,20.473418 342.8628,22.808418" id="Stroke-126" stroke="#969696" stroke-width="1.5" stroke-linecap="round" stroke-linejoin="round"></path>
                <path d="M357.5136,10.437818 C359.2706,-0.0881820045 367.8826,-2.012182 374.6136,4.330818" id="Stroke-127" stroke="#969696" stroke-width="1.5" stroke-linecap="round" stroke-linejoin="round"></path>
                <path d="M366.3091,81.148618 C370.5731,81.993618 375.2301,80.455618 378.1511,77.235618" id="Stroke-128" stroke="#969696" stroke-width="1.5" stroke-linecap="round" stroke-linejoin="round"></path>
                <path d="M334.86,110.588018 C336.34,143.664018 300.133,189.314018 293.61,208.077018 C290.812,216.125018 288.041,224.358018 287.054,244.678018" id="Stroke-129" stroke="#969696" stroke-width="1.5" stroke-linecap="round" stroke-linejoin="round"></path>
                <path d="M321.674,42.448518 C321.674,26.742518 342.787,19.058518 351.413,34.324518 C365.72,59.641518 321.674,69.656518 321.674,42.448518 Z" id="Stroke-130" stroke="#969696" stroke-width="1.5" stroke-linecap="round" stroke-linejoin="round"></path>
                <path d="M386.6733,58.820718 C371.0003,58.820718 363.7843,33.455718 381.6573,28.357718 C407.6393,20.945718 410.3843,58.820718 386.6733,58.820718 Z" id="Stroke-131" stroke="#969696" stroke-width="1.5" stroke-linecap="round" stroke-linejoin="round"></path>
                <path d="M386.1135,291.683118 C380.7545,291.683118 385.7385,293.066118 22.2235,293.066118 C14.5265,293.066118 16.4535,285.259118 16.4535,263.077118 C16.4535,254.100118 19.8295,257.307118 383.3455,257.307118 C385.9115,257.307118 386.0445,261.768118 385.8985,264.331118 C385.5565,270.360118 386.1135,281.810118 385.1815,285.952118" id="Stroke-132" stroke="#969696" stroke-width="1.5" stroke-linecap="round" stroke-linejoin="round"></path>
                <line x1="267.9341" y1="287.795918" x2="267.9341" y2="257.306918" id="Stroke-133" stroke="#969696" stroke-width="1.5" stroke-linecap="round" stroke-linejoin="round"></line>
                <polygon id="Stroke-134" stroke="#969696" stroke-width="1.5" stroke-linecap="round" stroke-linejoin="round" points="428.9958 430.946318 470.1348 430.946318 470.1348 373.085318 428.9958 373.085318"></polygon>
                <polygon id="Stroke-135" stroke="#969696" stroke-width="1.5" stroke-linecap="round" stroke-linejoin="round" points="408.2958 430.946318 428.9958 430.946318 428.9958 373.085318 408.2958 373.085318"></polygon>
                <polyline id="Stroke-136" stroke="#969696" stroke-width="1.5" stroke-linecap="round" stroke-linejoin="round" points="460.954 342.288818 480.895 342.288818 480.895 373.084818 377.859 373.084818"></polyline>
                <line x1="416.6957" y1="346.606118" x2="416.6957" y2="373.085118" id="Stroke-137" stroke="#969696" stroke-width="1.5" stroke-linecap="round" stroke-linejoin="round"></line>
                <path d="M328.199,245.596418 C262.564,246.421418 188.664,245.440418 123.023,245.440418 C122.64,248.100418 122.575,251.332418 123.958,253.635418" id="Stroke-138" stroke="#969696" stroke-width="1.5" stroke-linecap="round" stroke-linejoin="round"></path>
                <path d="M344.9271,250.597918 C343.8501,254.467918 340.3001,257.306918 336.0871,257.306918" id="Stroke-139" stroke="#969696" stroke-width="1.5" stroke-linecap="round" stroke-linejoin="round"></path>
                <path d="M249.1063,184.098518 C273.1163,177.109518 305.6763,169.549518 324.3283,150.690518" id="Stroke-140" stroke="#969696" stroke-width="1.5" stroke-linecap="round" stroke-linejoin="round"></path>
                <path d="M288.4821,228.583818 C277.7851,232.200818 267.7651,234.336818 258.6381,235.261818" id="Stroke-141" stroke="#969696" stroke-width="1.5" stroke-linecap="round" stroke-linejoin="round"></path>
                <path d="M434.7098,217.178418 L414.6888,228.387418 C345.9878,263.188418 300.7838,238.461418 314.5738,212.028418 C319.8228,201.967418 340.8878,197.015418 351.8618,193.618418 C422.2808,171.811418 405.0588,150.605418 404.9898,150.691157" id="Stroke-142" stroke="#969696" stroke-width="1.5" stroke-linecap="round" stroke-linejoin="round"></path>
                <path d="M312.9357,205.509118 C303.8897,208.098118 294.5337,211.655118 308.7907,213.914118 C313.8707,214.719118 300.0027,219.470118 300.1237,219.392118 C293.9017,222.485118 307.2947,225.314118 307.1857,225.255118 C308.7017,225.678118 304.3407,227.474118 301.1137,228.526118 C292.7607,231.248118 320.6487,240.154118 325.7187,241.209118" id="Stroke-143" stroke="#969696" stroke-width="1.5" stroke-linecap="round" stroke-linejoin="round"></path>
                <path d="M133.4549,388.982618 C147.0389,382.675618 161.2849,394.596618 160.9279,409.798618" id="Stroke-144" stroke="#969696" stroke-width="1.5" stroke-linecap="round" stroke-linejoin="round"></path>
                <path d="M130.1127,407.467018 C127.9887,401.048018 129.3977,393.031018 136.3617,384.576018 C123.9457,371.031018 144.1407,360.230018 153.4597,372.733018 L181.0857,409.800018" id="Stroke-145" stroke="#969696" stroke-width="1.5" stroke-linecap="round" stroke-linejoin="round"></path>
                <line x1="132.9252" y1="379.375618" x2="127.3092" y2="381.591618" id="Stroke-146" stroke="#969696" stroke-width="1.5" stroke-linecap="round" stroke-linejoin="round"></line>
                <path d="M146.3154,373.732318 C146.2684,376.458318 143.5644,378.738318 141.3044,374.473318" id="Stroke-147" stroke="#969696" stroke-width="1.5" stroke-linecap="round" stroke-linejoin="round"></path>
                <polyline id="Stroke-148" stroke="#969696" stroke-width="1.5" stroke-linecap="round" stroke-linejoin="round" points="143.81 360.212518 145.465 367.016518 151.539 362.663518"></polyline>
                <path d="M80.944,253.958918 C82.959,252.204918 84.232,249.621918 84.232,246.741918 L84.232,207.718918 L42.855,207.718918 L42.855,246.741918 C42.855,249.382918 43.925,251.773918 45.656,253.504918" id="Stroke-149" stroke="#969696" stroke-width="1.5" stroke-linecap="round" stroke-linejoin="round"></path>
                <path d="M63.4496,198.676618 C61.3036,197.244618 58.7816,194.061618 61.9656,189.310618 C63.3026,187.315618 67.5176,182.700618 62.5866,177.353618" id="Stroke-150" stroke="#D4D5D8" stroke-width="1.5" stroke-linecap="round" stroke-linejoin="round"></path>
                <path d="M398.8586,430.946518 L308.6646,430.946518 C306.0556,430.946518 303.9396,428.831518 303.9396,426.221518 L303.9396,412.804518 C303.9396,410.194518 306.0556,408.079518 308.6646,408.079518 L398.8586,408.079518 L398.8586,430.946518 Z" id="Stroke-151" stroke="#969696" stroke-width="1.5" stroke-linecap="round" stroke-linejoin="round"></path>
                <path d="M398.8586,430.946518 L349.6446,430.946518 C347.0346,430.946518 344.9186,428.831518 344.9186,426.221518 L344.9186,412.804518 C344.9186,410.194518 347.0346,408.079518 349.6446,408.079518 L398.8586,408.079518 L398.8586,430.946518 Z" id="Stroke-152" stroke="#969696" stroke-width="1.5" stroke-linecap="round" stroke-linejoin="round"></path>
                <path d="M354.1959,424.040818 L398.8589,424.040818 L398.8589,414.984818 L354.1959,414.984818 C353.0139,414.984818 352.0559,415.942818 352.0559,417.124818 L352.0559,421.900818 C352.0559,423.082818 353.0139,424.040818 354.1959,424.040818 Z" id="Stroke-153" stroke="#969696" stroke-width="1.5" stroke-linecap="round" stroke-linejoin="round"></path>
                <path d="M390.9428,387.096118 L317.0308,387.096118 L317.0308,408.079118 L390.9428,408.079118 C394.7638,408.079118 397.8628,404.982118 397.8628,401.160118 L397.8628,394.016118 C397.8628,390.194118 394.7638,387.096118 390.9428,387.096118 Z" id="Stroke-154" stroke="#969696" stroke-width="1.5" stroke-linecap="round" stroke-linejoin="round"></path>
                <path d="M355.6358,387.096118 L317.0308,387.096118 L317.0308,408.079118 L355.6358,408.079118 C359.4568,408.079118 362.5548,404.982118 362.5548,401.160118 L362.5548,394.016118 C362.5548,390.194118 359.4568,387.096118 355.6358,387.096118 Z" id="Stroke-155" stroke="#969696" stroke-width="1.5" stroke-linecap="round" stroke-linejoin="round"></path>
                <path d="M353.5469,401.922918 L317.0309,401.922918 L317.0309,393.252918 L353.5469,393.252918 C354.7949,393.252918 355.8069,394.263918 355.8069,395.512918 L355.8069,399.662918 C355.8069,400.911918 354.7949,401.922918 353.5469,401.922918 Z" id="Stroke-156" stroke="#969696" stroke-width="1.5" stroke-linecap="round" stroke-linejoin="round"></path>
                <line x1="306.9653" y1="373.085018" x2="306.9653" y2="408.080018" id="Stroke-157" stroke="#969696" stroke-width="1.5" stroke-linecap="round" stroke-linejoin="round"></line>
                <line x1="280.5012" y1="430.946518" x2="308.6662" y2="430.946518" id="Stroke-158" stroke="#969696" stroke-width="1.5" stroke-linecap="round" stroke-linejoin="round"></line>
                <line x1="501.619" y1="430.869218" x2="0" y2="430.869218" id="Stroke-159" stroke="#969696" stroke-width="1.5" stroke-linecap="round" stroke-linejoin="round"></line>
                <path d="M109.2273,429.968218 C108.2063,425.655218 106.3833,419.214218 108.8383,415.523218 C110.4743,413.065218 113.3603,411.668218 116.2703,411.163218 C119.1803,410.659218 122.1613,410.935218 125.1043,411.173218 C143.3703,412.644218 161.7643,412.533218 180.0113,410.843218 C182.2033,410.639218 184.4373,410.416218 186.5883,410.885218 C190.1123,411.653218 193.0873,414.307218 194.5843,417.587218 C196.0813,420.868218 194.7883,423.904218 193.8043,427.374218" id="Stroke-160" stroke="#969696" stroke-width="1.5" stroke-linecap="round" stroke-linejoin="round"></path>
                <path d="M114.3429,293.065618 C115.1799,330.598618 115.3719,368.608618 114.9149,406.359618" id="Stroke-161" stroke="#969696" stroke-width="1.5" stroke-linecap="round" stroke-linejoin="round"></path>
                <path d="M159.3237,293.065618 C159.3397,319.789618 159.3437,346.853618 159.3347,373.732618" id="Stroke-162" stroke="#969696" stroke-width="1.5" stroke-linecap="round" stroke-linejoin="round"></path>
                <path d="M138.4284,293.065618 C139.2654,316.437618 139.2424,326.908618 139.0004,354.730618" id="Stroke-163" stroke="#969696" stroke-width="1.5" stroke-linecap="round" stroke-linejoin="round"></path>
                <path d="M68.5271,293.584518 C68.7841,333.821518 68.5501,387.096518 68.5431,427.114518" id="Stroke-164" stroke="#969696" stroke-width="1.5" stroke-linecap="round" stroke-linejoin="round"></path>
                <path d="M22.3594,293.584518 C22.6164,333.821518 22.3824,387.096518 22.3754,427.114518" id="Stroke-165" stroke="#969696" stroke-width="1.5" stroke-linecap="round" stroke-linejoin="round"></path>
                <path d="M45.479,296.632518 C45.108,327.219518 44.737,357.835518 45.415,388.401518 C46.354,430.763518 45.906,429.977518 46.138,430.769518" id="Stroke-166" stroke="#969696" stroke-width="1.5" stroke-linecap="round" stroke-linejoin="round"></path>
                <path d="M285.6082,293.584518 C285.8652,333.821518 285.6312,387.096518 285.6242,427.114518" id="Stroke-167" stroke="#969696" stroke-width="1.5" stroke-linecap="round" stroke-linejoin="round"></path>
                <path d="M239.4405,293.584518 C239.6975,333.821518 239.4635,387.096518 239.4565,427.114518" id="Stroke-168" stroke="#969696" stroke-width="1.5" stroke-linecap="round" stroke-linejoin="round"></path>
                <path d="M262.5601,296.632518 C262.1891,327.219518 261.8181,357.835518 262.4961,388.401518 C263.4351,430.763518 262.9871,429.977518 263.2191,430.769518" id="Stroke-169" stroke="#969696" stroke-width="1.5" stroke-linecap="round" stroke-linejoin="round"></path>
                <path d="M330.4458,293.065618 C329.7518,307.253618 331.4068,334.161618 331.7898,354.302618 C331.9598,363.267618 332.3368,374.885618 331.8158,383.788618" id="Stroke-170" stroke="#969696" stroke-width="1.5" stroke-linecap="round" stroke-linejoin="round"></path>
                <path d="M355.1131,386.590918 C355.3091,372.402918 354.8411,345.494918 354.7331,325.353918 C354.6851,316.388918 354.5781,304.770918 354.7261,295.867918" id="Stroke-171" stroke="#969696" stroke-width="1.5" stroke-linecap="round" stroke-linejoin="round"></path>
                <path d="M376.4375,293.257918 C376.9215,324.512918 377.2025,355.801918 377.2785,387.095918" id="Stroke-172" stroke="#969696" stroke-width="1.5" stroke-linecap="round" stroke-linejoin="round"></path>
                <line x1="286.6843" y1="342.812118" x2="315.9973" y2="340.681118" id="Stroke-173" stroke="#969696" stroke-width="1.5" stroke-linecap="round" stroke-linejoin="round"></line>
                <path d="M286.3732,372.117518 C301.3422,372.176518 316.3102,372.644518 331.2542,373.520518" id="Stroke-174" stroke="#969696" stroke-width="1.5" stroke-linecap="round" stroke-linejoin="round"></path>
                <path d="M218.3344,295.323218 C218.5374,311.859218 223.0154,328.009218 227.4594,343.938218 C227.7024,344.808218 227.9914,345.747218 228.7264,346.274218 C229.3154,346.696218 230.0784,346.767218 230.8014,346.813218 C233.2544,346.971218 235.7154,347.006218 238.1714,346.918218" id="Stroke-175" stroke="#969696" stroke-width="1.5" stroke-linecap="round" stroke-linejoin="round"></path>
                <path d="M311.1991,293.776418 C314.0711,309.727418 316.9421,324.676418 319.8141,340.627418 C319.9361,341.304418 320.0931,342.042418 320.6311,342.471418 C321.0621,342.813418 321.6461,342.879418 322.1961,342.900418 C324.0201,342.971418 329.5281,343.505418 331.2541,342.911418" id="Stroke-176" stroke="#969696" stroke-width="1.5" stroke-linecap="round" stroke-linejoin="round"></path>
                <path d="M382.1736,347.094018 C411.5446,344.310018 435.6286,347.716018 455.3866,336.517018 C458.5386,334.730018 461.7366,332.936018 464.3546,330.431018 C467.7206,327.209018 470.0016,323.036018 472.0436,318.848018 C475.6176,311.515018 476.3416,306.595018 478.7526,298.802018 C486.6816,273.178018 480.1606,238.236018 476.4066,211.677018 C468.1546,149.284018 450.6686,118.909018 450.6686,64.626018 C450.6686,64.755018 452.2826,48.796018 445.6246,34.430018 C440.5976,23.585018 432.2036,19.969018 432.2036,19.969018" id="Stroke-177" stroke="#969696" stroke-width="1.5" stroke-linecap="round" stroke-linejoin="round"></path>
                <path d="M255.3412,245.952718 C254.9032,248.470718 255.2352,251.194718 256.4602,253.357718 C257.6842,255.520718 259.8412,257.045718 262.1182,257.101718" id="Stroke-178" stroke="#969696" stroke-width="1.5" stroke-linecap="round" stroke-linejoin="round"></path>
                <path d="M122.5978,242.507418 C119.6638,236.405418 111.8868,204.340418 107.1388,181.232418 C102.4498,158.406418 108.8818,162.918418 117.3308,161.946418 C127.4228,160.784418 224.7688,157.217418 233.3088,162.719418 C236.4958,164.773418 238.7848,168.182418 239.7428,171.850418 C248.6758,206.038418 249.0558,214.424418 255.3408,245.952418" id="Stroke-179" stroke="#969696" stroke-width="1.5" stroke-linecap="round" stroke-linejoin="round"></path>
                <path d="M353.4275,36.756118 C358.9595,33.696118 366.3465,34.419118 371.1795,38.493118" id="Stroke-180" stroke="#969696" stroke-width="1.5" stroke-linecap="round" stroke-linejoin="round"></path>
                <path d="M42.759,220.663118 C40.011,220.612118 36.961,220.671118 34.951,222.546118 C34.085,223.354118 33.506,224.436118 33.171,225.572118 C32.372,228.282118 32.984,231.368118 34.757,233.568118 C35.608,234.625118 36.717,235.463118 37.951,236.027118" id="Stroke-181" stroke="#969696" stroke-width="1.5" stroke-linecap="round" stroke-linejoin="round"></path>
                <path d="M42.1077,213.013318 C19.4967,207.451318 20.4047,244.959318 41.5837,245.041318" id="Stroke-182" stroke="#969696" stroke-width="1.5" stroke-linecap="round" stroke-linejoin="round"></path>
            </g>
        </g>
    </g>
</svg>
